<svg width="199" height="33" viewBox="0 0 199 33" fill="none" xmlns="http://www.w3.org/2000/svg">
<rect width="199" height="33" fill="#1E1E1E"/>
<path fill-rule="evenodd" clip-rule="evenodd" d="M58 0C56.8954 0 56 0.895432 56 2V29H2C0.895416 29 0 29.8954 0 31C0 32.1046 0.895447 33 2 33H58C59.1046 33 60 32.1046 60 31V7.80869L77.8898 32.1334C78.2908 32.6787 78.9163 32.9615 79.5453 32.9481C79.6914 32.982 79.8436 33 80 33H112C112.118 33 112.235 32.9897 112.347 32.9699C112.957 33.0463 113.594 32.8417 114.049 32.3616C114.809 31.5601 114.775 30.2942 113.974 29.5342L87.0445 4H197C198.105 4 199 3.10457 199 2C199 0.895432 198.105 0 197 0H82C80.8954 0 80 0.895432 80 2C80 2.67263 80.332 3.2677 80.8412 3.63025L107.597 29H80.5506L59.9512 0.991039C59.722 0.679409 59.4196 0.453526 59.0851 0.319641C58.7725 0.117409 58.4 0 58 0Z" fill="#D9D9D9"/>
</svg>
